<svg width="128" height="192" viewBox="0 0 128 192" fill="none" xmlns="http://www.w3.org/2000/svg">
  <path d="M64 32C74.4934 32 83 23.4934 83 13C83 2.50659 74.4934 -6 64 -6C53.5066 -6 45 2.50659 45 13C45 23.4934 53.5066 32 64 32Z" stroke="#2196F3" stroke-width="2"/>
  <path d="M45 40C45 40 41 41 41 45V75C41 75 41 78 38 78C35 78 35 75 35 75V60C35 60 35 57 32 57C29 57 29 60 29 60V110C29 110 29 115 24 115C19 115 19 110 19 110V65C19 65 19 62 16 62C13 62 13 65 13 65V140C13 140 13 180 64 180C115 180 115 140 115 140V65C115 65 115 62 112 62C109 62 109 65 109 65V110C109 110 109 115 104 115C99 115 99 110 99 110V60C99 60 99 57 96 57C93 57 93 60 93 60V75C93 75 93 78 90 78C87 78 87 75 87 75V45C87 41 83 40 83 40H45Z" stroke="#2196F3" stroke-width="2"/>
</svg> 